<svg xmlns="http://www.w3.org/2000/svg" width="102" height="27" viewBox="0 0 102 27">
  <path d="M84.34 0L82.4 7.2h3.3L88.05 0h-3.71zM45.62 1.9v4.22H42.6V9.2h3.07v6.62c0 3.4.88 5.13 4.78 5.13.82 0 2.1-.14 2.87-.5v-3.04c-.46.3-1.32.45-1.97.45-1.65 0-2.05-.9-2.05-2.36V9.16h4.02V6.08H49.3V1.9h-3.66zm46.64 3.8c-2.93 0-5.86 1.47-5.86 4.69 0 5.53 7.88 3.17 7.88 6.16 0 1.18-1.38 1.68-2.43 1.68-1.56 0-2.52-.72-3.48-1.77l-2.43 2.27c1.47 1.64 3.44 2.23 5.68 2.23 2.98 0 6.32-1.23 6.32-4.68 0-5.62-7.88-3.53-7.88-6.12 0-1.1 1.2-1.54 2.16-1.54 1.28 0 2.2.54 2.88 1.5l2.38-2.18c-1.2-1.64-3.25-2.24-5.22-2.24zm-83.13.06a7.2 7.2 0 0 0-.15 0C4.52 5.76 1 8.84 1 13.38S4.53 20.95 8.93 21c1.28 0 3.75-.54 5.26-2.04l-2.42-2.6a3.57 3.57 0 0 1-2.84 1.37c-2.7 0-4.3-2.08-4.3-4.35a4.2 4.2 0 0 1 4.29-4.35c1.01 0 1.93.59 2.8 1.45l2.56-2.5a7.2 7.2 0 0 0-5.15-2.22zm13.5 0c-2.35 0-4.59.68-6.24 2.3l1.93 1.9a5.76 5.76 0 0 1 3.9-1.48c1.96 0 3.33.95 3.33 2.72v.4h-.9c-3.68 0-9.22.33-9.22 5.05 0 2.85 2.6 4.35 5.31 4.35 1.97 0 3.67-.73 4.68-2.36h.1v2h3.3v-8.35c.03-2.08.03-6.53-6.2-6.53zm16.8 0c-1.87 0-3.52 1-4.3 2.68h-.05V6.12h-3.7v14.52h3.66v-7.76c0-.82.5-3.67 3.93-3.67a8 8 0 0 1 1.8.27v-3.5a4.54 4.54 0 0 0-1.34-.22zm23.24 0c-4.4 0-7.97 3.04-7.97 7.62 0 4.54 3.53 7.62 7.97 7.62a7.6 7.6 0 0 0 6.18-2.9l-2.6-1.95a4.78 4.78 0 0 1-3.96 1.95 3.79 3.79 0 0 1-3.93-3.45h11.18v-1c0-5.03-2.8-7.89-6.87-7.89zm16.99 0c-1.93 0-3.57 1-4.35 2.68h-.04V6.12H71.6v14.52h3.67v-7.76c0-.82.5-3.67 3.94-3.67.6 0 1.19.13 1.78.27v-3.5a4.56 4.56 0 0 0-1.32-.22h-.01zm20.16.54a1.18 1.18 0 1 0 0 2.36 1.18 1.18 0 1 0 0-2.36zm0 .23c.5 0 .96.4.96.95 0 .55-.41.96-.96.96a.93.93 0 0 1-.96-.96c0-.54.4-.95.96-.95zm-.46.23v1.3h.28v-.53h.18l.32.54h.27l-.36-.54c.18 0 .32-.14.32-.36 0-.28-.14-.41-.46-.41h-.55zm.28.27h.18c.14 0 .32 0 .32.18s-.18.18-.32.18h-.18v-.36zM62.16 8.48c2.3 0 3.7 1.32 3.7 3.45h-7.5c.27-2.09 1.6-3.45 3.8-3.45zM24.6 14.1h.78v.8c0 2.05-1.19 3.32-3.7 3.32-1.2 0-2.58-.6-2.58-1.9 0-2.1 3.5-2.22 5.5-2.22z" fill="#00a9e0"/>
</svg>
